<svg xmlns="http://www.w3.org/2000/svg" xmlns:xlink="http://www.w3.org/1999/xlink" width="500" zoomAndPan="magnify" viewBox="0 0 375 374.999991" height="500" preserveAspectRatio="xMidYMid meet" version="1.0"><defs><g/><clipPath id="80eb78b4e5"><path d="M 0.519531 26.808594 L 236.015625 26.808594 L 236.015625 262.304688 L 0.519531 262.304688 Z M 0.519531 26.808594 " clip-rule="nonzero"/></clipPath><clipPath id="fa5499ab45"><path d="M 13 0.398438 L 224 0.398438 L 224 61 L 13 61 Z M 13 0.398438 " clip-rule="nonzero"/></clipPath><clipPath id="2f534e37d9"><rect x="0" width="211" y="0" height="61"/></clipPath><clipPath id="345749f7b2"><path d="M 45 267 L 192 267 L 192 310.238281 L 45 310.238281 Z M 45 267 " clip-rule="nonzero"/></clipPath><clipPath id="c79f6aa05b"><rect x="0" width="147" y="0" height="44"/></clipPath><clipPath id="dc15fbccec"><rect x="0" width="237" y="0" height="311"/></clipPath></defs><g transform="matrix(1, 0, 0, 1, 69, 32)"><g clip-path="url(#dc15fbccec)"><g clip-path="url(#80eb78b4e5)"><path fill="#ffffff" d="M 236.488281 144.789062 C 236.488281 160.714844 233.371094 176.167969 227.214844 190.71875 C 221.273438 204.765625 212.765625 217.382812 201.929688 228.21875 C 191.097656 239.054688 178.484375 247.554688 164.429688 253.503906 C 149.878906 259.660156 134.425781 262.777344 118.503906 262.777344 C 105.941406 262.777344 93.671875 260.832031 81.90625 256.992188 L 81.90625 239.445312 C 93.558594 243.957031 105.855469 246.246094 118.503906 246.246094 C 132.203125 246.246094 145.488281 243.566406 157.992188 238.277344 C 170.070312 233.167969 180.925781 225.847656 190.242188 216.53125 C 199.5625 207.210938 206.882812 196.359375 211.988281 184.28125 C 217.277344 171.777344 219.957031 158.492188 219.957031 144.789062 C 219.957031 131.089844 217.277344 117.804688 211.988281 105.300781 C 206.882812 93.222656 199.5625 82.367188 190.242188 73.050781 C 180.925781 63.730469 170.070312 56.410156 157.992188 51.304688 C 145.488281 46.019531 132.203125 43.339844 118.503906 43.339844 C 104.800781 43.339844 91.515625 46.019531 79.011719 51.308594 C 66.933594 56.417969 56.078125 63.738281 46.761719 73.054688 C 37.445312 82.371094 30.125 93.226562 25.015625 105.304688 C 19.726562 117.808594 17.046875 131.09375 17.046875 144.796875 C 17.046875 158.496094 19.726562 171.78125 25.015625 184.285156 C 28.875 193.414062 33.996094 201.832031 40.285156 209.425781 L 40.285156 233.128906 C 38.507812 231.550781 36.765625 229.917969 35.070312 228.222656 C 24.234375 217.390625 15.730469 204.777344 9.785156 190.722656 C 3.636719 176.167969 0.519531 160.71875 0.519531 144.789062 C 0.519531 128.867188 3.636719 113.414062 9.792969 98.863281 C 15.738281 84.8125 24.242188 72.195312 35.078125 61.363281 C 45.914062 50.527344 58.527344 42.023438 72.578125 36.078125 C 87.128906 29.925781 102.578125 26.808594 118.503906 26.808594 C 134.425781 26.808594 149.878906 29.925781 164.429688 36.082031 C 178.480469 42.023438 191.097656 50.53125 201.929688 61.367188 C 212.765625 72.199219 221.269531 84.8125 227.214844 98.867188 C 233.367188 113.417969 236.488281 128.867188 236.488281 144.789062 Z M 184.519531 144.789062 C 184.519531 153.699219 182.773438 162.34375 179.328125 170.488281 C 176.003906 178.351562 171.246094 185.410156 165.183594 191.472656 C 159.121094 197.53125 152.066406 202.292969 144.199219 205.617188 C 136.054688 209.058594 127.410156 210.808594 118.503906 210.808594 C 109.59375 210.808594 100.945312 209.0625 92.800781 205.617188 C 84.941406 202.292969 77.878906 197.53125 71.816406 191.472656 C 70.84375 190.5 69.914062 189.5 69.011719 188.480469 L 69.011719 251.917969 C 63.238281 249.25 57.714844 246.140625 52.480469 242.597656 L 52.480469 145.105469 L 52.484375 145.105469 C 52.484375 145 52.480469 144.894531 52.480469 144.789062 C 52.480469 135.882812 54.226562 127.230469 57.671875 119.089844 C 60.996094 111.226562 65.753906 104.171875 71.816406 98.109375 C 77.878906 92.046875 84.933594 87.289062 92.800781 83.964844 C 100.945312 80.523438 109.589844 78.773438 118.503906 78.773438 C 127.410156 78.773438 136.054688 80.519531 144.199219 83.964844 C 152.066406 87.289062 159.121094 92.046875 165.183594 98.109375 C 171.246094 104.171875 176.003906 111.226562 179.332031 119.089844 C 182.773438 127.238281 184.519531 135.882812 184.519531 144.789062 Z M 167.992188 144.789062 C 167.992188 131.570312 162.84375 119.144531 153.496094 109.796875 C 144.148438 100.449219 131.722656 95.304688 118.503906 95.304688 C 105.285156 95.304688 92.855469 100.449219 83.507812 109.796875 C 74.164062 119.144531 69.015625 131.570312 69.015625 144.789062 C 69.015625 158.007812 74.164062 170.4375 83.507812 179.78125 C 92.855469 189.128906 105.285156 194.28125 118.503906 194.28125 C 131.722656 194.28125 144.148438 189.128906 153.496094 179.78125 C 162.84375 170.4375 167.992188 158.007812 167.992188 144.789062 Z M 167.992188 144.789062 " fill-opacity="1" fill-rule="nonzero"/></g><g clip-path="url(#fa5499ab45)"><g transform="matrix(1, 0, 0, 1, 13, 0)"><g clip-path="url(#2f534e37d9)"><g fill="#ffffff" fill-opacity="1"><g transform="translate(9.220215, 58.638304)"><g><path d="M -1.125 -4.078125 L -5.484375 -4.65625 L -4.953125 -5.296875 L -1.515625 -4.875 L -2.65625 -8.140625 L -2.140625 -8.78125 L -0.671875 -4.640625 L 2 -2.484375 L 1.546875 -1.921875 Z M -1.125 -4.078125 "/></g></g></g><g fill="#ffffff" fill-opacity="1"><g transform="translate(14.817198, 51.844509)"><g><path d="M 3.15625 -3.015625 C 2.664062 -2.492188 2.09375 -2.140625 1.4375 -1.953125 C 0.789062 -1.773438 0.148438 -1.769531 -0.484375 -1.9375 C -1.128906 -2.101562 -1.691406 -2.414062 -2.171875 -2.875 C -2.679688 -3.363281 -3.03125 -3.925781 -3.21875 -4.5625 C -3.40625 -5.207031 -3.421875 -5.851562 -3.265625 -6.5 C -3.109375 -7.144531 -2.796875 -7.710938 -2.328125 -8.203125 C -1.835938 -8.722656 -1.269531 -9.078125 -0.625 -9.265625 C 0.0195312 -9.460938 0.664062 -9.476562 1.3125 -9.3125 C 1.96875 -9.15625 2.546875 -8.832031 3.046875 -8.34375 C 3.554688 -7.863281 3.898438 -7.304688 4.078125 -6.671875 C 4.265625 -6.035156 4.28125 -5.390625 4.125 -4.734375 C 3.96875 -4.085938 3.644531 -3.515625 3.15625 -3.015625 Z M 2.640625 -3.484375 C 3.015625 -3.890625 3.269531 -4.347656 3.40625 -4.859375 C 3.539062 -5.378906 3.535156 -5.898438 3.390625 -6.421875 C 3.242188 -6.953125 2.957031 -7.421875 2.53125 -7.828125 C 2.101562 -8.234375 1.617188 -8.492188 1.078125 -8.609375 C 0.546875 -8.734375 0.0234375 -8.71875 -0.484375 -8.5625 C -0.992188 -8.40625 -1.429688 -8.132812 -1.796875 -7.75 C -2.171875 -7.375 -2.421875 -6.925781 -2.546875 -6.40625 C -2.671875 -5.882812 -2.660156 -5.359375 -2.515625 -4.828125 C -2.367188 -4.304688 -2.082031 -3.835938 -1.65625 -3.421875 C -1.25 -3.023438 -0.78125 -2.765625 -0.25 -2.640625 C 0.269531 -2.515625 0.785156 -2.523438 1.296875 -2.671875 C 1.816406 -2.828125 2.265625 -3.097656 2.640625 -3.484375 Z M 2.640625 -3.484375 "/></g></g></g><g fill="#ffffff" fill-opacity="1"><g transform="translate(23.181758, 43.421288)"><g><path d="M 2.59375 -2.015625 C 2.226562 -1.691406 1.84375 -1.492188 1.4375 -1.421875 C 1.03125 -1.347656 0.617188 -1.398438 0.203125 -1.578125 C -0.203125 -1.765625 -0.59375 -2.066406 -0.96875 -2.484375 L -4.03125 -6.015625 L -3.5 -6.484375 L -0.34375 -2.859375 C -0.101562 -2.578125 0.15625 -2.375 0.4375 -2.25 C 0.71875 -2.125 1.003906 -2.082031 1.296875 -2.125 C 1.585938 -2.175781 1.863281 -2.316406 2.125 -2.546875 C 2.414062 -2.785156 2.597656 -3.046875 2.671875 -3.328125 C 2.753906 -3.609375 2.75 -3.894531 2.65625 -4.1875 C 2.570312 -4.476562 2.421875 -4.753906 2.203125 -5.015625 L -0.984375 -8.671875 L -0.4375 -9.140625 L 2.625 -5.609375 C 3 -5.191406 3.242188 -4.765625 3.359375 -4.328125 C 3.484375 -3.898438 3.476562 -3.488281 3.34375 -3.09375 C 3.21875 -2.695312 2.96875 -2.335938 2.59375 -2.015625 Z M 2.59375 -2.015625 "/></g></g></g><g fill="#ffffff" fill-opacity="1"><g transform="translate(30.636024, 37.112551)"><g><path d="M -1.9375 -7.5 C -1.269531 -8 -0.671875 -8.234375 -0.140625 -8.203125 C 0.378906 -8.171875 0.816406 -7.914062 1.171875 -7.4375 C 1.421875 -7.101562 1.546875 -6.753906 1.546875 -6.390625 C 1.554688 -6.035156 1.453125 -5.691406 1.234375 -5.359375 C 1.023438 -5.023438 0.722656 -4.707031 0.328125 -4.40625 L 4.40625 -3.265625 L 3.6875 -2.734375 L -0.359375 -3.90625 L -0.71875 -3.640625 L 1.28125 -0.953125 L 0.703125 -0.515625 L -3.578125 -6.28125 Z M -0.078125 -4.96875 C 0.359375 -5.300781 0.640625 -5.632812 0.765625 -5.96875 C 0.890625 -6.3125 0.828125 -6.648438 0.578125 -6.984375 C 0.359375 -7.285156 0.0820312 -7.445312 -0.25 -7.46875 C -0.59375 -7.488281 -0.976562 -7.34375 -1.40625 -7.03125 L -2.578125 -6.15625 L -1.125 -4.203125 Z M -0.078125 -4.96875 "/></g></g></g><g fill="#ffffff" fill-opacity="1"><g transform="translate(38.097282, 31.763195)"><g/></g></g><g fill="#ffffff" fill-opacity="1"><g transform="translate(43.186851, 28.525594)"><g><path d="M -1.078125 -7.640625 C -0.390625 -8.023438 0.21875 -8.207031 0.75 -8.1875 C 1.28125 -8.164062 1.722656 -7.847656 2.078125 -7.234375 C 2.429688 -6.597656 2.472656 -6.039062 2.203125 -5.5625 C 1.929688 -5.082031 1.445312 -4.648438 0.75 -4.265625 L -0.25 -3.6875 L 1.390625 -0.78125 L 0.765625 -0.4375 L -2.765625 -6.6875 Z M 0.4375 -4.890625 C 0.769531 -5.078125 1.035156 -5.265625 1.234375 -5.453125 C 1.429688 -5.648438 1.550781 -5.863281 1.59375 -6.09375 C 1.644531 -6.332031 1.59375 -6.59375 1.4375 -6.875 C 1.21875 -7.269531 0.925781 -7.46875 0.5625 -7.46875 C 0.207031 -7.46875 -0.210938 -7.328125 -0.703125 -7.046875 L -1.796875 -6.421875 L -0.59375 -4.296875 Z M 0.4375 -4.890625 "/></g></g></g><g fill="#ffffff" fill-opacity="1"><g transform="translate(50.995543, 24.250666)"><g><path d="M -2.28125 -6.875 L 1.421875 -8.640625 L 1.71875 -8.015625 L -1.34375 -6.5625 L -0.375 -4.515625 L 2.6875 -5.96875 L 2.984375 -5.34375 L -0.078125 -3.890625 L 1.140625 -1.328125 L 4.203125 -2.78125 L 4.5 -2.140625 L 0.796875 -0.375 Z M -2.28125 -6.875 "/></g></g></g><g fill="#ffffff" fill-opacity="1"><g transform="translate(58.793295, 20.674329)"><g><path d="M 0.125 -7.765625 C 0.894531 -8.054688 1.53125 -8.113281 2.03125 -7.9375 C 2.53125 -7.769531 2.890625 -7.410156 3.109375 -6.859375 C 3.265625 -6.460938 3.296875 -6.09375 3.203125 -5.75 C 3.109375 -5.414062 2.914062 -5.113281 2.625 -4.84375 C 2.332031 -4.570312 1.957031 -4.347656 1.5 -4.171875 L 5.109375 -1.984375 L 4.28125 -1.65625 L 0.703125 -3.859375 L 0.28125 -3.703125 L 1.484375 -0.578125 L 0.8125 -0.3125 L -1.78125 -7.015625 Z M 1.234375 -4.828125 C 1.742188 -5.023438 2.101562 -5.269531 2.3125 -5.5625 C 2.53125 -5.851562 2.5625 -6.195312 2.40625 -6.59375 C 2.269531 -6.9375 2.039062 -7.160156 1.71875 -7.265625 C 1.394531 -7.378906 0.992188 -7.34375 0.515625 -7.15625 L -0.859375 -6.625 L 0.015625 -4.359375 Z M 1.234375 -4.828125 "/></g></g></g><g fill="#ffffff" fill-opacity="1"><g transform="translate(67.376917, 17.492062)"><g><path d="M 2.375 -0.546875 C 1.914062 -0.398438 1.476562 -0.394531 1.0625 -0.53125 C 0.65625 -0.664062 0.25 -0.941406 -0.15625 -1.359375 L 0.328125 -1.890625 C 0.648438 -1.578125 0.957031 -1.359375 1.25 -1.234375 C 1.550781 -1.117188 1.832031 -1.101562 2.09375 -1.1875 C 2.332031 -1.269531 2.535156 -1.390625 2.703125 -1.546875 C 2.867188 -1.710938 2.976562 -1.898438 3.03125 -2.109375 C 3.09375 -2.328125 3.085938 -2.546875 3.015625 -2.765625 C 2.953125 -2.972656 2.832031 -3.148438 2.65625 -3.296875 C 2.488281 -3.441406 2.265625 -3.570312 1.984375 -3.6875 C 1.703125 -3.8125 1.210938 -4.015625 0.515625 -4.296875 C 0.203125 -4.421875 -0.0390625 -4.539062 -0.21875 -4.65625 C -0.40625 -4.769531 -0.5625 -4.898438 -0.6875 -5.046875 C -0.8125 -5.203125 -0.910156 -5.40625 -0.984375 -5.65625 C -1.078125 -5.957031 -1.085938 -6.25 -1.015625 -6.53125 C -0.953125 -6.820312 -0.816406 -7.078125 -0.609375 -7.296875 C -0.398438 -7.515625 -0.140625 -7.671875 0.171875 -7.765625 C 0.554688 -7.890625 0.914062 -7.894531 1.25 -7.78125 C 1.59375 -7.675781 1.953125 -7.484375 2.328125 -7.203125 L 1.890625 -6.609375 C 1.691406 -6.753906 1.515625 -6.863281 1.359375 -6.9375 C 1.210938 -7.019531 1.054688 -7.070312 0.890625 -7.09375 C 0.722656 -7.113281 0.550781 -7.097656 0.375 -7.046875 C 0.1875 -6.984375 0.0351562 -6.890625 -0.078125 -6.765625 C -0.203125 -6.648438 -0.273438 -6.515625 -0.296875 -6.359375 C -0.328125 -6.203125 -0.320312 -6.050781 -0.28125 -5.90625 C -0.207031 -5.6875 -0.0820312 -5.5 0.09375 -5.34375 C 0.28125 -5.1875 0.523438 -5.054688 0.828125 -4.953125 C 1.441406 -4.742188 1.925781 -4.5625 2.28125 -4.40625 C 2.632812 -4.257812 2.9375 -4.070312 3.1875 -3.84375 C 3.445312 -3.613281 3.628906 -3.328125 3.734375 -2.984375 C 3.828125 -2.660156 3.832031 -2.332031 3.75 -2 C 3.675781 -1.664062 3.519531 -1.367188 3.28125 -1.109375 C 3.039062 -0.847656 2.738281 -0.660156 2.375 -0.546875 Z M 2.375 -0.546875 "/></g></g></g><g fill="#ffffff" fill-opacity="1"><g transform="translate(75.106654, 15.165553)"><g><path d="M 4.296875 -0.75 C 3.597656 -0.59375 2.925781 -0.617188 2.28125 -0.828125 C 1.644531 -1.046875 1.101562 -1.398438 0.65625 -1.890625 C 0.21875 -2.378906 -0.0703125 -2.953125 -0.21875 -3.609375 C -0.375 -4.296875 -0.347656 -4.957031 -0.140625 -5.59375 C 0.0546875 -6.226562 0.398438 -6.769531 0.890625 -7.21875 C 1.378906 -7.675781 1.957031 -7.976562 2.625 -8.125 C 3.320312 -8.28125 3.988281 -8.253906 4.625 -8.046875 C 5.257812 -7.847656 5.804688 -7.503906 6.265625 -7.015625 C 6.722656 -6.523438 7.03125 -5.941406 7.1875 -5.265625 C 7.332031 -4.578125 7.300781 -3.914062 7.09375 -3.28125 C 6.894531 -2.65625 6.550781 -2.113281 6.0625 -1.65625 C 5.570312 -1.195312 4.984375 -0.894531 4.296875 -0.75 Z M 4.125 -1.4375 C 4.664062 -1.550781 5.132812 -1.789062 5.53125 -2.15625 C 5.9375 -2.519531 6.222656 -2.957031 6.390625 -3.46875 C 6.554688 -3.988281 6.570312 -4.539062 6.4375 -5.125 C 6.3125 -5.6875 6.0625 -6.164062 5.6875 -6.5625 C 5.3125 -6.957031 4.863281 -7.234375 4.34375 -7.390625 C 3.832031 -7.546875 3.316406 -7.566406 2.796875 -7.453125 C 2.285156 -7.335938 1.832031 -7.097656 1.4375 -6.734375 C 1.039062 -6.378906 0.753906 -5.9375 0.578125 -5.40625 C 0.410156 -4.882812 0.390625 -4.335938 0.515625 -3.765625 C 0.640625 -3.203125 0.882812 -2.722656 1.25 -2.328125 C 1.625 -1.929688 2.066406 -1.65625 2.578125 -1.5 C 3.085938 -1.34375 3.601562 -1.320312 4.125 -1.4375 Z M 4.125 -1.4375 "/></g></g></g><g fill="#ffffff" fill-opacity="1"><g transform="translate(86.72778, 12.787001)"><g><path d="M 4.859375 -7.84375 L 5.578125 -7.9375 L 6.46875 -0.8125 L 6.296875 -0.78125 L 0.90625 -5.59375 L 1.578125 -0.203125 L 0.875 -0.109375 L -0.015625 -7.234375 L 0.109375 -7.25 L 5.546875 -2.390625 Z M 4.859375 -7.84375 "/></g></g></g><g fill="#ffffff" fill-opacity="1"><g transform="translate(97.215531, 11.617138)"><g><path d="M 6.15625 -0.25 L 4.96875 -2.5625 L 1.8125 -2.4375 L 0.796875 -0.03125 L 0.046875 0 L 3.125 -7.328125 L 3.296875 -7.328125 L 6.90625 -0.28125 Z M 2.09375 -3.140625 L 4.609375 -3.234375 L 3.25 -5.875 Z M 2.09375 -3.140625 "/></g></g></g><g fill="#ffffff" fill-opacity="1"><g transform="translate(107.41128, 11.390357)"><g><path d="M 0.328125 1.296875 L 1.109375 -1.28125 L 2.078125 -0.875 L 0.71875 1.453125 Z M 0.328125 1.296875 "/></g></g></g><g fill="#ffffff" fill-opacity="1"><g transform="translate(113.474404, 11.636137)"><g/></g></g><g fill="#ffffff" fill-opacity="1"><g transform="translate(119.485079, 12.15556)"><g><path d="M 2.90625 -3.0625 L 1.140625 -7.109375 L 1.953125 -6.984375 L 3.375 -3.796875 L 5.578125 -6.484375 L 6.40625 -6.375 L 3.625 -2.96875 L 3.15625 0.4375 L 2.4375 0.34375 Z M 2.90625 -3.0625 "/></g></g></g><g fill="#ffffff" fill-opacity="1"><g transform="translate(128.194869, 13.436274)"><g><path d="M 4.203125 1.15625 C 3.503906 0.988281 2.910156 0.671875 2.421875 0.203125 C 1.941406 -0.253906 1.601562 -0.796875 1.40625 -1.421875 C 1.207031 -2.054688 1.179688 -2.695312 1.328125 -3.34375 C 1.484375 -4.039062 1.789062 -4.632812 2.25 -5.125 C 2.707031 -5.613281 3.25 -5.957031 3.875 -6.15625 C 4.507812 -6.363281 5.15625 -6.390625 5.8125 -6.234375 C 6.507812 -6.078125 7.109375 -5.769531 7.609375 -5.3125 C 8.109375 -4.863281 8.457031 -4.320312 8.65625 -3.6875 C 8.863281 -3.050781 8.890625 -2.390625 8.734375 -1.703125 C 8.578125 -1.023438 8.273438 -0.445312 7.828125 0.03125 C 7.378906 0.519531 6.832031 0.867188 6.1875 1.078125 C 5.539062 1.285156 4.878906 1.3125 4.203125 1.15625 Z M 4.34375 0.46875 C 4.882812 0.582031 5.414062 0.5625 5.9375 0.40625 C 6.457031 0.25 6.898438 -0.0234375 7.265625 -0.421875 C 7.628906 -0.816406 7.875 -1.300781 8 -1.875 C 8.132812 -2.445312 8.113281 -2.992188 7.9375 -3.515625 C 7.769531 -4.035156 7.484375 -4.472656 7.078125 -4.828125 C 6.679688 -5.179688 6.222656 -5.414062 5.703125 -5.53125 C 5.179688 -5.65625 4.664062 -5.640625 4.15625 -5.484375 C 3.65625 -5.328125 3.210938 -5.046875 2.828125 -4.640625 C 2.453125 -4.242188 2.195312 -3.753906 2.0625 -3.171875 C 1.9375 -2.617188 1.957031 -2.085938 2.125 -1.578125 C 2.300781 -1.066406 2.582031 -0.628906 2.96875 -0.265625 C 3.351562 0.0976562 3.8125 0.34375 4.34375 0.46875 Z M 4.34375 0.46875 "/></g></g></g><g fill="#ffffff" fill-opacity="1"><g transform="translate(139.729076, 16.245675)"><g><path d="M 3.0625 1.171875 C 2.59375 1.023438 2.222656 0.796875 1.953125 0.484375 C 1.679688 0.171875 1.515625 -0.203125 1.453125 -0.640625 C 1.398438 -1.085938 1.457031 -1.578125 1.625 -2.109375 L 3.0625 -6.5625 L 3.75 -6.34375 L 2.28125 -1.765625 C 2.164062 -1.410156 2.125 -1.082031 2.15625 -0.78125 C 2.195312 -0.488281 2.3125 -0.226562 2.5 0 C 2.6875 0.238281 2.945312 0.410156 3.28125 0.515625 C 3.632812 0.628906 3.953125 0.644531 4.234375 0.5625 C 4.523438 0.488281 4.769531 0.335938 4.96875 0.109375 C 5.175781 -0.109375 5.332031 -0.382812 5.4375 -0.71875 L 6.921875 -5.328125 L 7.59375 -5.109375 L 6.15625 -0.65625 C 5.988281 -0.125 5.75 0.300781 5.4375 0.625 C 5.132812 0.957031 4.78125 1.171875 4.375 1.265625 C 3.96875 1.359375 3.53125 1.328125 3.0625 1.171875 Z M 3.0625 1.171875 "/></g></g></g><g fill="#ffffff" fill-opacity="1"><g transform="translate(148.979497, 19.37323)"><g><path d="M 5.4375 -5.546875 C 6.195312 -5.234375 6.695312 -4.835938 6.9375 -4.359375 C 7.1875 -3.890625 7.195312 -3.382812 6.96875 -2.84375 C 6.8125 -2.445312 6.582031 -2.15625 6.28125 -1.96875 C 5.976562 -1.789062 5.628906 -1.703125 5.234375 -1.703125 C 4.835938 -1.710938 4.40625 -1.8125 3.9375 -2 L 5.078125 2.078125 L 4.25 1.75 L 3.15625 -2.3125 L 2.734375 -2.484375 L 1.46875 0.609375 L 0.8125 0.328125 L 3.546875 -6.328125 Z M 4.203125 -2.65625 C 4.710938 -2.445312 5.144531 -2.375 5.5 -2.4375 C 5.863281 -2.507812 6.125 -2.742188 6.28125 -3.140625 C 6.425781 -3.472656 6.421875 -3.789062 6.265625 -4.09375 C 6.109375 -4.394531 5.785156 -4.644531 5.296875 -4.84375 L 3.9375 -5.390625 L 3 -3.140625 Z M 4.203125 -2.65625 "/></g></g></g><g fill="#ffffff" fill-opacity="1"><g transform="translate(162.809404, 25.662285)"><g><path d="M 5.34375 3.046875 L 5.5625 0.46875 L 2.828125 -1.109375 L 0.6875 0.390625 L 0.046875 0.015625 L 6.515625 -4.546875 L 6.671875 -4.453125 L 6 3.421875 Z M 3.4375 -1.546875 L 5.625 -0.296875 L 5.875 -3.25 Z M 3.4375 -1.546875 "/></g></g></g><g fill="#ffffff" fill-opacity="1"><g transform="translate(171.579827, 30.873304)"><g><path d="M 4.703125 -5.515625 L 5.296875 -5.125 L 1.328125 0.875 L 0.734375 0.484375 Z M 4.703125 -5.515625 "/></g></g></g><g fill="#ffffff" fill-opacity="1"><g transform="translate(176.335084, 34.110467)"><g/></g></g><g fill="#ffffff" fill-opacity="1"><g transform="translate(181.170284, 37.732096)"><g><path d="M 1.734375 1.6875 C 1.367188 1.375 1.132812 1.007812 1.03125 0.59375 C 0.925781 0.175781 0.929688 -0.3125 1.046875 -0.875 L 1.75 -0.78125 C 1.675781 -0.332031 1.671875 0.046875 1.734375 0.359375 C 1.796875 0.679688 1.929688 0.929688 2.140625 1.109375 C 2.335938 1.273438 2.546875 1.375 2.765625 1.40625 C 2.992188 1.445312 3.210938 1.4375 3.421875 1.375 C 3.640625 1.3125 3.820312 1.191406 3.96875 1.015625 C 4.113281 0.847656 4.195312 0.648438 4.21875 0.421875 C 4.238281 0.203125 4.222656 -0.0546875 4.171875 -0.359375 C 4.117188 -0.671875 4.015625 -1.195312 3.859375 -1.9375 C 3.796875 -2.257812 3.757812 -2.523438 3.75 -2.734375 C 3.75 -2.953125 3.773438 -3.15625 3.828125 -3.34375 C 3.890625 -3.53125 4.003906 -3.726562 4.171875 -3.9375 C 4.378906 -4.175781 4.625 -4.34375 4.90625 -4.4375 C 5.1875 -4.539062 5.472656 -4.566406 5.765625 -4.515625 C 6.066406 -4.460938 6.34375 -4.332031 6.59375 -4.125 C 6.90625 -3.863281 7.101562 -3.5625 7.1875 -3.21875 C 7.28125 -2.882812 7.316406 -2.484375 7.296875 -2.015625 L 6.5625 -2.046875 C 6.570312 -2.285156 6.566406 -2.488281 6.546875 -2.65625 C 6.523438 -2.832031 6.476562 -2.992188 6.40625 -3.140625 C 6.34375 -3.296875 6.238281 -3.4375 6.09375 -3.5625 C 5.945312 -3.6875 5.785156 -3.757812 5.609375 -3.78125 C 5.441406 -3.8125 5.285156 -3.796875 5.140625 -3.734375 C 4.992188 -3.679688 4.867188 -3.59375 4.765625 -3.46875 C 4.617188 -3.289062 4.535156 -3.082031 4.515625 -2.84375 C 4.492188 -2.613281 4.523438 -2.34375 4.609375 -2.03125 C 4.765625 -1.394531 4.875 -0.882812 4.9375 -0.5 C 5 -0.125 5.003906 0.226562 4.953125 0.5625 C 4.910156 0.90625 4.773438 1.21875 4.546875 1.5 C 4.335938 1.75 4.066406 1.929688 3.734375 2.046875 C 3.410156 2.160156 3.070312 2.1875 2.71875 2.125 C 2.363281 2.070312 2.035156 1.925781 1.734375 1.6875 Z M 1.734375 1.6875 "/></g></g></g><g fill="#ffffff" fill-opacity="1"><g transform="translate(187.353854, 42.983865)"><g><path d="M 5.59375 -4.609375 L 8.5625 -1.78125 L 8.078125 -1.28125 L 5.625 -3.625 L 4.078125 -1.96875 L 6.53125 0.375 L 6.046875 0.859375 L 3.59375 -1.484375 L 1.640625 0.578125 L 4.09375 2.921875 L 3.609375 3.4375 L 0.640625 0.609375 Z M 5.59375 -4.609375 "/></g></g></g><g fill="#ffffff" fill-opacity="1"><g transform="translate(193.501312, 48.990025)"><g><path d="M 6.375 -3.6875 L 1.59375 0.703125 L 3.46875 2.734375 L 2.953125 3.203125 L 0.59375 0.640625 L 5.890625 -4.21875 Z M 6.375 -3.6875 "/></g></g></g><g fill="#ffffff" fill-opacity="1"><g transform="translate(198.753542, 54.850686)"><g><path d="M 6.140625 -3.8125 L 8.40625 -1 L 7.859375 -0.5625 L 6.046875 -2.828125 L 4.296875 -1.421875 L 6.109375 0.84375 L 5.5625 1.28125 L 3.75 -0.984375 L 1 1.234375 L 0.546875 0.6875 Z M 6.140625 -3.8125 "/></g></g></g></g></g></g><g clip-path="url(#345749f7b2)"><g transform="matrix(1, 0, 0, 1, 45, 267)"><g clip-path="url(#c79f6aa05b)"><g fill="#ffffff" fill-opacity="1"><g transform="translate(0.885125, 34.499612)"><g><path d="M 17.125 -24.03125 C 18.5 -24.03125 19.753906 -23.703125 20.890625 -23.046875 C 22.023438 -22.398438 22.925781 -21.519531 23.59375 -20.40625 C 24.269531 -19.300781 24.609375 -18.050781 24.609375 -16.65625 C 24.609375 -15.226562 24.253906 -13.9375 23.546875 -12.78125 C 22.835938 -11.625 21.878906 -10.703125 20.671875 -10.015625 C 19.472656 -9.335938 18.164062 -9 16.75 -9 L 8.6875 -9 L 8.6875 0 L 4.984375 0 L 4.984375 -24.03125 Z M 16.546875 -12.5625 C 17.296875 -12.5625 17.988281 -12.75 18.625 -13.125 C 19.269531 -13.507812 19.78125 -14.007812 20.15625 -14.625 C 20.539062 -15.238281 20.734375 -15.914062 20.734375 -16.65625 C 20.734375 -17.363281 20.539062 -18.003906 20.15625 -18.578125 C 19.78125 -19.148438 19.269531 -19.601562 18.625 -19.9375 C 17.988281 -20.28125 17.296875 -20.453125 16.546875 -20.453125 L 8.6875 -20.453125 L 8.6875 -12.5625 Z M 16.546875 -12.5625 "/></g></g></g><g fill="#ffffff" fill-opacity="1"><g transform="translate(28.788598, 34.499612)"><g><path d="M 4.984375 -24.03125 L 22.796875 -24.03125 L 22.796875 -20.453125 L 8.6875 -20.453125 L 8.6875 -14.109375 L 20.90625 -14.109375 L 20.90625 -10.53125 L 8.6875 -10.53125 L 8.6875 -3.5625 L 22.796875 -3.5625 L 22.796875 0 L 4.984375 0 Z M 4.984375 -24.03125 "/></g></g></g><g fill="#ffffff" fill-opacity="1"><g transform="translate(55.799711, 34.499612)"><g><path d="M 25.0625 -16.515625 C 25.0625 -14.929688 24.566406 -13.492188 23.578125 -12.203125 C 22.597656 -10.910156 21.351562 -9.988281 19.84375 -9.4375 L 26.265625 0.03125 L 21.703125 0 L 15.6875 -8.921875 L 8.6875 -8.921875 L 8.6875 0 L 4.984375 0 L 4.984375 -24.03125 L 17.328125 -24.03125 C 18.679688 -24.03125 19.941406 -23.707031 21.109375 -23.0625 C 22.273438 -22.425781 23.222656 -21.546875 23.953125 -20.421875 C 24.691406 -19.304688 25.0625 -18.003906 25.0625 -16.515625 Z M 16.484375 -20.453125 L 8.6875 -20.453125 L 8.6875 -12.5 L 16.921875 -12.5 C 17.722656 -12.5 18.441406 -12.6875 19.078125 -13.0625 C 19.722656 -13.4375 20.234375 -13.929688 20.609375 -14.546875 C 20.992188 -15.171875 21.1875 -15.835938 21.1875 -16.546875 C 21.1875 -17.296875 20.96875 -17.96875 20.53125 -18.5625 C 20.09375 -19.164062 19.519531 -19.628906 18.8125 -19.953125 C 18.101562 -20.285156 17.328125 -20.453125 16.484375 -20.453125 Z M 16.484375 -20.453125 "/></g></g></g><g fill="#ffffff" fill-opacity="1"><g transform="translate(85.728157, 34.499612)"><g><path d="M 5.625 -7.34375 C 6.820312 -5.945312 8.066406 -4.867188 9.359375 -4.109375 C 10.648438 -3.359375 12.234375 -2.984375 14.109375 -2.984375 C 15.117188 -2.984375 16.085938 -3.113281 17.015625 -3.375 C 17.941406 -3.644531 18.707031 -4.046875 19.3125 -4.578125 C 19.914062 -5.117188 20.21875 -5.789062 20.21875 -6.59375 C 20.21875 -7.738281 19.609375 -8.5625 18.390625 -9.0625 C 17.179688 -9.5625 15.476562 -9.972656 13.28125 -10.296875 C 10.582031 -10.710938 8.429688 -11.472656 6.828125 -12.578125 C 5.222656 -13.691406 4.421875 -15.3125 4.421875 -17.4375 C 4.421875 -18.875 4.847656 -20.109375 5.703125 -21.140625 C 6.566406 -22.171875 7.726562 -22.96875 9.1875 -23.53125 C 10.65625 -24.09375 12.273438 -24.375 14.046875 -24.375 C 16.234375 -24.375 18.128906 -24.003906 19.734375 -23.265625 C 21.335938 -22.535156 22.597656 -21.5 23.515625 -20.15625 L 20.96875 -17.5 C 20.21875 -18.5625 19.242188 -19.414062 18.046875 -20.0625 C 16.859375 -20.71875 15.488281 -21.046875 13.9375 -21.046875 C 12.332031 -21.046875 10.992188 -20.753906 9.921875 -20.171875 C 8.847656 -19.585938 8.3125 -18.769531 8.3125 -17.71875 C 8.3125 -16.476562 8.890625 -15.597656 10.046875 -15.078125 C 11.203125 -14.566406 12.71875 -14.164062 14.59375 -13.875 C 15.820312 -13.6875 17.003906 -13.441406 18.140625 -13.140625 C 19.273438 -12.847656 20.285156 -12.453125 21.171875 -11.953125 C 22.066406 -11.460938 22.773438 -10.835938 23.296875 -10.078125 C 23.828125 -9.328125 24.09375 -8.394531 24.09375 -7.28125 C 24.09375 -5.75 23.679688 -4.410156 22.859375 -3.265625 C 22.035156 -2.117188 20.863281 -1.226562 19.34375 -0.59375 C 17.820312 0.03125 16.019531 0.34375 13.9375 0.34375 C 11.71875 0.34375 9.710938 -0.0195312 7.921875 -0.75 C 6.140625 -1.488281 4.578125 -2.679688 3.234375 -4.328125 Z M 5.625 -7.34375 "/></g></g></g><g fill="#ffffff" fill-opacity="1"><g transform="translate(113.116812, 34.499612)"><g><path d="M 29.796875 -12.015625 C 29.796875 -10.273438 29.46875 -8.65625 28.8125 -7.15625 C 28.164062 -5.65625 27.242188 -4.34375 26.046875 -3.21875 C 24.859375 -2.101562 23.453125 -1.226562 21.828125 -0.59375 C 20.203125 0.03125 18.429688 0.34375 16.515625 0.34375 C 14.546875 0.34375 12.75 0.03125 11.125 -0.59375 C 9.5 -1.226562 8.097656 -2.101562 6.921875 -3.21875 C 5.742188 -4.34375 4.828125 -5.65625 4.171875 -7.15625 C 3.515625 -8.65625 3.1875 -10.273438 3.1875 -12.015625 C 3.1875 -13.753906 3.515625 -15.375 4.171875 -16.875 C 4.828125 -18.375 5.742188 -19.679688 6.921875 -20.796875 C 8.097656 -21.921875 9.5 -22.796875 11.125 -23.421875 C 12.75 -24.054688 14.546875 -24.375 16.515625 -24.375 C 18.429688 -24.375 20.203125 -24.054688 21.828125 -23.421875 C 23.453125 -22.796875 24.859375 -21.921875 26.046875 -20.796875 C 27.242188 -19.679688 28.164062 -18.375 28.8125 -16.875 C 29.46875 -15.375 29.796875 -13.753906 29.796875 -12.015625 Z M 26.015625 -12.015625 C 26.015625 -13.679688 25.609375 -15.171875 24.796875 -16.484375 C 23.984375 -17.804688 22.863281 -18.847656 21.4375 -19.609375 C 20.007812 -20.378906 18.367188 -20.765625 16.515625 -20.765625 C 14.609375 -20.765625 12.941406 -20.378906 11.515625 -19.609375 C 10.085938 -18.847656 8.972656 -17.804688 8.171875 -16.484375 C 7.367188 -15.171875 6.96875 -13.679688 6.96875 -12.015625 C 6.96875 -10.347656 7.367188 -8.851562 8.171875 -7.53125 C 8.972656 -6.21875 10.085938 -5.175781 11.515625 -4.40625 C 12.941406 -3.644531 14.609375 -3.265625 16.515625 -3.265625 C 18.367188 -3.265625 20.007812 -3.644531 21.4375 -4.40625 C 22.863281 -5.175781 23.984375 -6.222656 24.796875 -7.546875 C 25.609375 -8.878906 26.015625 -10.367188 26.015625 -12.015625 Z M 26.015625 -12.015625 "/></g></g></g></g></g></g></g></g></svg>