<svg xmlns="http://www.w3.org/2000/svg" xmlns:xlink="http://www.w3.org/1999/xlink" width="500" zoomAndPan="magnify" viewBox="0 0 375 374.999991" height="500" preserveAspectRatio="xMidYMid meet" version="1.0"><defs><g/><clipPath id="ebeb8e6372"><path d="M 24.058594 145.136719 L 108.808594 145.136719 L 108.808594 229.886719 L 24.058594 229.886719 Z M 24.058594 145.136719 " clip-rule="nonzero"/></clipPath><clipPath id="2c26e0ea3e"><rect x="0" width="227" y="0" height="67"/></clipPath></defs><g clip-path="url(#ebeb8e6372)"><path fill="#ffffff" d="M 108.777344 187.496094 C 108.777344 193.214844 107.660156 198.761719 105.449219 203.988281 C 103.316406 209.03125 100.261719 213.5625 96.371094 217.449219 C 92.480469 221.339844 87.953125 224.394531 82.90625 226.527344 C 77.683594 228.738281 72.132812 229.859375 66.417969 229.859375 C 61.90625 229.859375 57.503906 229.160156 53.277344 227.78125 L 53.277344 221.480469 C 57.460938 223.101562 61.875 223.921875 66.417969 223.921875 C 71.335938 223.921875 76.105469 222.960938 80.59375 221.0625 C 84.933594 219.226562 88.828125 216.601562 92.175781 213.253906 C 95.519531 209.910156 98.148438 206.011719 99.980469 201.675781 C 101.878906 197.1875 102.84375 192.417969 102.84375 187.496094 C 102.84375 182.578125 101.878906 177.808594 99.980469 173.320312 C 98.148438 168.984375 95.519531 165.085938 92.175781 161.742188 C 88.828125 158.394531 84.933594 155.765625 80.59375 153.933594 C 76.105469 152.035156 71.335938 151.074219 66.417969 151.074219 C 61.5 151.074219 56.730469 152.035156 52.238281 153.933594 C 47.902344 155.769531 44.007812 158.398438 40.660156 161.742188 C 37.316406 165.089844 34.6875 168.984375 32.851562 173.320312 C 30.953125 177.8125 29.992188 182.582031 29.992188 187.5 C 29.992188 192.417969 30.953125 197.1875 32.851562 201.675781 C 34.238281 204.953125 36.078125 207.976562 38.335938 210.703125 L 38.335938 219.214844 C 37.695312 218.648438 37.070312 218.058594 36.460938 217.453125 C 32.574219 213.5625 29.519531 209.035156 27.386719 203.988281 C 25.179688 198.761719 24.058594 193.214844 24.058594 187.496094 C 24.058594 181.78125 25.179688 176.230469 27.386719 171.007812 C 29.523438 165.964844 32.574219 161.433594 36.464844 157.542969 C 40.355469 153.65625 44.882812 150.601562 49.929688 148.46875 C 55.152344 146.257812 60.699219 145.136719 66.417969 145.136719 C 72.132812 145.136719 77.683594 146.257812 82.90625 148.46875 C 87.949219 150.601562 92.480469 153.65625 96.371094 157.546875 C 100.261719 161.4375 103.3125 165.964844 105.449219 171.011719 C 107.65625 176.234375 108.777344 181.78125 108.777344 187.496094 Z M 90.121094 187.496094 C 90.121094 190.695312 89.492188 193.800781 88.253906 196.722656 C 87.0625 199.546875 85.351562 202.082031 83.175781 204.257812 C 81 206.433594 78.46875 208.140625 75.644531 209.335938 C 72.71875 210.570312 69.617188 211.199219 66.417969 211.199219 C 63.21875 211.199219 60.113281 210.574219 57.1875 209.335938 C 54.367188 208.140625 51.832031 206.433594 49.65625 204.257812 C 49.304688 203.910156 48.972656 203.550781 48.648438 203.183594 L 48.648438 225.960938 C 46.574219 225 44.59375 223.886719 42.714844 222.613281 L 42.714844 187.609375 C 42.714844 187.574219 42.714844 187.535156 42.714844 187.496094 C 42.714844 184.300781 43.339844 181.195312 44.578125 178.269531 C 45.769531 175.449219 47.480469 172.914062 49.65625 170.738281 C 51.832031 168.5625 54.367188 166.851562 57.1875 165.660156 C 60.113281 164.421875 63.21875 163.796875 66.417969 163.796875 C 69.617188 163.796875 72.71875 164.421875 75.644531 165.660156 C 78.46875 166.851562 81 168.5625 83.175781 170.738281 C 85.351562 172.914062 87.0625 175.449219 88.257812 178.269531 C 89.492188 181.195312 90.121094 184.300781 90.121094 187.496094 Z M 84.183594 187.496094 C 84.183594 182.75 82.335938 178.289062 78.980469 174.933594 C 75.625 171.578125 71.164062 169.730469 66.417969 169.730469 C 61.671875 169.730469 57.210938 171.578125 53.855469 174.933594 C 50.5 178.289062 48.652344 182.75 48.652344 187.496094 C 48.652344 192.242188 50.5 196.707031 53.855469 200.0625 C 57.210938 203.417969 61.671875 205.265625 66.417969 205.265625 C 71.164062 205.265625 75.625 203.417969 78.980469 200.0625 C 82.335938 196.707031 84.183594 192.242188 84.183594 187.496094 Z M 84.183594 187.496094 " fill-opacity="1" fill-rule="nonzero"/></g><g transform="matrix(1, 0, 0, 1, 113, 154)"><g clip-path="url(#2c26e0ea3e)"><g fill="#ffffff" fill-opacity="1"><g transform="translate(0.849694, 53.435113)"><g><path d="M 26.53125 -37.203125 C 28.65625 -37.203125 30.59375 -36.695312 32.34375 -35.6875 C 34.101562 -34.675781 35.503906 -33.3125 36.546875 -31.59375 C 37.585938 -29.875 38.109375 -27.9375 38.109375 -25.78125 C 38.109375 -23.582031 37.554688 -21.585938 36.453125 -19.796875 C 35.359375 -18.003906 33.878906 -16.578125 32.015625 -15.515625 C 30.160156 -14.453125 28.132812 -13.921875 25.9375 -13.921875 L 13.453125 -13.921875 L 13.453125 0 L 7.703125 0 L 7.703125 -37.203125 Z M 25.625 -19.453125 C 26.789062 -19.453125 27.867188 -19.742188 28.859375 -20.328125 C 29.859375 -20.910156 30.648438 -21.679688 31.234375 -22.640625 C 31.816406 -23.597656 32.109375 -24.644531 32.109375 -25.78125 C 32.109375 -26.875 31.816406 -27.863281 31.234375 -28.75 C 30.648438 -29.644531 29.859375 -30.359375 28.859375 -30.890625 C 27.867188 -31.421875 26.789062 -31.6875 25.625 -31.6875 L 13.453125 -31.6875 L 13.453125 -19.453125 Z M 25.625 -19.453125 "/></g></g></g><g fill="#ffffff" fill-opacity="1"><g transform="translate(44.069134, 53.435113)"><g><path d="M 7.703125 -37.203125 L 35.296875 -37.203125 L 35.296875 -31.6875 L 13.453125 -31.6875 L 13.453125 -21.84375 L 32.375 -21.84375 L 32.375 -16.3125 L 13.453125 -16.3125 L 13.453125 -5.53125 L 35.296875 -5.53125 L 35.296875 0 L 7.703125 0 Z M 7.703125 -37.203125 "/></g></g></g><g fill="#ffffff" fill-opacity="1"><g transform="translate(85.906405, 53.435113)"><g><path d="M 38.796875 -25.5625 C 38.796875 -23.125 38.035156 -20.898438 36.515625 -18.890625 C 34.992188 -16.890625 33.0625 -15.46875 30.71875 -14.625 L 40.671875 0.046875 L 33.59375 0 L 24.296875 -13.828125 L 13.453125 -13.828125 L 13.453125 0 L 7.703125 0 L 7.703125 -37.203125 L 26.84375 -37.203125 C 28.9375 -37.203125 30.882812 -36.707031 32.6875 -35.71875 C 34.5 -34.726562 35.96875 -33.363281 37.09375 -31.625 C 38.226562 -29.882812 38.796875 -27.863281 38.796875 -25.5625 Z M 25.515625 -31.6875 L 13.453125 -31.6875 L 13.453125 -19.34375 L 26.203125 -19.34375 C 27.441406 -19.34375 28.554688 -19.632812 29.546875 -20.21875 C 30.546875 -20.8125 31.335938 -21.582031 31.921875 -22.53125 C 32.503906 -23.488281 32.796875 -24.519531 32.796875 -25.625 C 32.796875 -26.789062 32.457031 -27.832031 31.78125 -28.75 C 31.113281 -29.675781 30.226562 -30.394531 29.125 -30.90625 C 28.03125 -31.425781 26.828125 -31.6875 25.515625 -31.6875 Z M 25.515625 -31.6875 "/></g></g></g><g fill="#ffffff" fill-opacity="1"><g transform="translate(132.262307, 53.435113)"><g><path d="M 8.71875 -11.375 C 10.5625 -9.21875 12.484375 -7.550781 14.484375 -6.375 C 16.484375 -5.207031 18.9375 -4.625 21.84375 -4.625 C 23.40625 -4.625 24.898438 -4.828125 26.328125 -5.234375 C 27.765625 -5.640625 28.953125 -6.257812 29.890625 -7.09375 C 30.835938 -7.925781 31.3125 -8.960938 31.3125 -10.203125 C 31.3125 -11.972656 30.367188 -13.25 28.484375 -14.03125 C 26.609375 -14.8125 23.972656 -15.453125 20.578125 -15.953125 C 16.390625 -16.585938 13.054688 -17.765625 10.578125 -19.484375 C 8.097656 -21.203125 6.859375 -23.707031 6.859375 -27 C 6.859375 -29.238281 7.519531 -31.15625 8.84375 -32.75 C 10.175781 -34.34375 11.972656 -35.570312 14.234375 -36.4375 C 16.503906 -37.300781 19.003906 -37.734375 21.734375 -37.734375 C 25.140625 -37.734375 28.082031 -37.164062 30.5625 -36.03125 C 33.039062 -34.90625 34.988281 -33.296875 36.40625 -31.203125 L 32.484375 -27.109375 C 31.304688 -28.742188 29.796875 -30.0625 27.953125 -31.0625 C 26.117188 -32.070312 23.992188 -32.578125 21.578125 -32.578125 C 19.097656 -32.578125 17.023438 -32.125 15.359375 -31.21875 C 13.691406 -30.320312 12.859375 -29.054688 12.859375 -27.421875 C 12.859375 -25.515625 13.753906 -24.160156 15.546875 -23.359375 C 17.335938 -22.566406 19.6875 -21.9375 22.59375 -21.46875 C 24.507812 -21.1875 26.34375 -20.816406 28.09375 -20.359375 C 29.84375 -19.898438 31.410156 -19.285156 32.796875 -18.515625 C 34.179688 -17.753906 35.28125 -16.789062 36.09375 -15.625 C 36.90625 -14.457031 37.3125 -13.003906 37.3125 -11.265625 C 37.3125 -8.890625 36.671875 -6.816406 35.390625 -5.046875 C 34.117188 -3.273438 32.304688 -1.898438 29.953125 -0.921875 C 27.597656 0.046875 24.804688 0.53125 21.578125 0.53125 C 18.140625 0.53125 15.039062 -0.0351562 12.28125 -1.171875 C 9.519531 -2.304688 7.09375 -4.148438 5 -6.703125 Z M 8.71875 -11.375 "/></g></g></g><g fill="#ffffff" fill-opacity="1"><g transform="translate(174.68435, 53.435113)"><g><path d="M 46.140625 -18.609375 C 46.140625 -15.910156 45.632812 -13.398438 44.625 -11.078125 C 43.613281 -8.753906 42.1875 -6.722656 40.34375 -4.984375 C 38.5 -3.253906 36.316406 -1.898438 33.796875 -0.921875 C 31.285156 0.046875 28.539062 0.53125 25.5625 0.53125 C 22.519531 0.53125 19.738281 0.046875 17.21875 -0.921875 C 14.707031 -1.898438 12.535156 -3.253906 10.703125 -4.984375 C 8.878906 -6.722656 7.460938 -8.753906 6.453125 -11.078125 C 5.441406 -13.398438 4.9375 -15.910156 4.9375 -18.609375 C 4.9375 -21.296875 5.441406 -23.800781 6.453125 -26.125 C 7.460938 -28.445312 8.878906 -30.472656 10.703125 -32.203125 C 12.535156 -33.941406 14.707031 -35.296875 17.21875 -36.265625 C 19.738281 -37.242188 22.519531 -37.734375 25.5625 -37.734375 C 28.539062 -37.734375 31.285156 -37.242188 33.796875 -36.265625 C 36.316406 -35.296875 38.5 -33.941406 40.34375 -32.203125 C 42.1875 -30.472656 43.613281 -28.445312 44.625 -26.125 C 45.632812 -23.800781 46.140625 -21.296875 46.140625 -18.609375 Z M 40.296875 -18.609375 C 40.296875 -21.191406 39.664062 -23.5 38.40625 -25.53125 C 37.144531 -27.570312 35.40625 -29.1875 33.1875 -30.375 C 30.976562 -31.5625 28.4375 -32.15625 25.5625 -32.15625 C 22.625 -32.15625 20.046875 -31.5625 17.828125 -30.375 C 15.617188 -29.1875 13.894531 -27.570312 12.65625 -25.53125 C 11.414062 -23.5 10.796875 -21.191406 10.796875 -18.609375 C 10.796875 -16.015625 11.414062 -13.695312 12.65625 -11.65625 C 13.894531 -9.625 15.617188 -8.015625 17.828125 -6.828125 C 20.046875 -5.640625 22.625 -5.046875 25.5625 -5.046875 C 28.4375 -5.046875 30.976562 -5.640625 33.1875 -6.828125 C 35.40625 -8.015625 37.144531 -9.632812 38.40625 -11.6875 C 39.664062 -13.75 40.296875 -16.054688 40.296875 -18.609375 Z M 40.296875 -18.609375 "/></g></g></g></g></g></svg>